<svg xmlns="http://www.w3.org/2000/svg" xmlns:xlink="http://www.w3.org/1999/xlink" viewBox="0,0,256,256" width="64px" height="64px" fill-rule="nonzero"><g fill="#baff39" fill-rule="nonzero" stroke="none" stroke-width="1" stroke-linecap="butt" stroke-linejoin="miter" stroke-miterlimit="10" stroke-dasharray="" stroke-dashoffset="0" font-family="none" font-weight="none" font-size="none" text-anchor="none" style="mix-blend-mode: normal"><g transform="scale(3.55556,3.55556)"><path d="M32,11c-1.105,0 -2,0.895 -2,2v1h-13c-2.209,0 -4,1.791 -4,4c0,2.209 1.791,4 4,4h38c2.209,0 4,-1.791 4,-4c0,-2.209 -1.791,-4 -4,-4h-13v-1c0,-1.105 -0.895,-2 -2,-2zM16,24v25c0,5.514 4.486,10 10,10h20c5.514,0 10,-4.486 10,-10v-25zM24.5,29c0.828,0 1.5,0.671 1.5,1.5v19c0,0.829 -0.672,1.5 -1.5,1.5c-0.828,0 -1.5,-0.671 -1.5,-1.5v-19c0,-0.829 0.672,-1.5 1.5,-1.5zM36,29c1.104,0 2,0.896 2,2v18c0,1.104 -0.896,2 -2,2c-1.104,0 -2,-0.896 -2,-2v-18c0,-1.104 0.896,-2 2,-2zM47.5,29c0.828,0 1.5,0.671 1.5,1.5v19c0,0.829 -0.672,1.5 -1.5,1.5c-0.828,0 -1.5,-0.671 -1.5,-1.5v-19c0,-0.829 0.672,-1.5 1.5,-1.5z"></path></g></g></svg>